HIERARCHY
ROOT Hips
{
	OFFSET	0.00	0.00	0.00
	CHANNELS 6 Xposition Yposition Zposition Zrotation Xrotation Yrotation
	JOINT LeftUpLeg
	{
		OFFSET	 3.430000	 0.000000	 0.000000
		CHANNELS 3 Zrotation Xrotation Yrotation
		JOINT LeftLowLeg
		{
			OFFSET	 0.000000	-18.469999	 0.000000
			CHANNELS 3 Zrotation Xrotation Yrotation
			JOINT LeftFoot
			{
				OFFSET	 0.000000	-17.950001	 0.000000
				CHANNELS 3 Zrotation Xrotation Yrotation
				End Site 
				{
					OFFSET	 0.000000	-3.119997	 0.000000
				}
			}
		}
	}
	JOINT RightUpLeg
	{
		OFFSET	-3.430000	 0.000000	 0.000000
		CHANNELS 3 Zrotation Xrotation Yrotation
		JOINT RightLowLeg
		{
			OFFSET	 0.000000	-18.809999	 0.000000
			CHANNELS 3 Zrotation Xrotation Yrotation
			JOINT RightFoot
			{
				OFFSET	 0.000000	-17.570000	 0.000000
				CHANNELS 3 Zrotation Xrotation Yrotation
				End Site 
				{
					OFFSET	 0.000000	-3.250000	 0.000000
				}
			}
		}
	}
	JOINT Chest
	{
		OFFSET	 0.000000	 4.570000	 0.000000
		CHANNELS 3 Zrotation Xrotation Yrotation
		JOINT LeftCollar
		{
			OFFSET	 1.060000	 15.330000	 1.760000
			CHANNELS 3 Zrotation Xrotation Yrotation
			JOINT LeftUpArm
			{
				OFFSET	 5.810000	 0.000000	 0.000000
				CHANNELS 3 Zrotation Xrotation Yrotation
				JOINT LeftLowArm
				{
					OFFSET	 0.000000	-12.080000	 0.000000
					CHANNELS 3 Zrotation Xrotation Yrotation
					JOINT LeftHand
					{
						OFFSET	 0.000000	-9.820000	 0.000000
						CHANNELS 3 Zrotation Xrotation Yrotation
						End Site 
						{
							OFFSET	 0.000000	-7.369996	 0.000000
						}
					}
				}
			}
		}
		JOINT RightCollar
		{
			OFFSET	-1.060000	 15.330000	 1.760000
			CHANNELS 3 Zrotation Xrotation Yrotation
			JOINT RightUpArm
			{
				OFFSET	-6.060000	 0.000000	 0.000000
				CHANNELS 3 Zrotation Xrotation Yrotation
				JOINT RightLowArm
				{
					OFFSET	 0.000000	-11.900000	 0.000000
					CHANNELS 3 Zrotation Xrotation Yrotation
					JOINT RightHand
					{
						OFFSET	 0.000000	-9.520000	 0.000000
						CHANNELS 3 Zrotation Xrotation Yrotation
						End Site 
						{
							OFFSET	 0.000000	-7.140010	 0.000000
						}
					}
				}
			}
		}
		JOINT Neck
		{
			OFFSET	 0.000000	 17.620001	 0.000000
			CHANNELS 3 Zrotation Xrotation Yrotation
			JOINT Head
			{
				OFFSET	 0.000000	 5.190000	 0.000000
				CHANNELS 3 Zrotation Xrotation Yrotation
				End Site 
				{
					OFFSET	 0.000000	 4.140007	 0.000000
				}
			}
		}
	}
}
MOTION
Frames:     11
Frame Time: 0.033333
 0.00	 0.0	 0.00	0.0	0.0	 0.0	 0.0	 0.0	0.0	 0.0	0.0	 0.0	0.0	 0.0	 0.0	0.0	 0.0	 0.0	 0.0	0.0	0.0	0.0	 0.0	 0.0	 0.0	 0.0	0.0	0.0	 0.00	0.0	 0.0	 0.0	0.0	 0.00	0.0	 0.0	 0.00	 0.00	 0.00	 0.0	 0.00	 0.0	0.0	 0.0	 0.0	0.0	0.0	 0.0	 0.00	 0.00	 0.00	 0.0	 0.0	 0.00	0.0	0.0	0.0
 0.00	 40.07	 0.00	-0.22	-13.93	 0.69	 9.80	 18.38	-3.12	 3.87	-0.46	 31.30	-3.85	 4.41	 2.21	-4.46	 18.57	 1.42	 0.21	-4.47	-30.15	-7.14	 0.27	 2.92	 1.45	 19.45	-3.98	-15.67	 0.00	-8.21	 54.24	 8.83	-69.97	 0.00	-85.58	 0.64	 0.00	 0.00	 0.00	 12.09	 0.00	 9.79	-53.61	 22.37	 62.57	-180.00	-84.08	 163.15	 0.00	 0.00	 0.00	 1.68	 47.84	 0.00	-4.87	-36.66	-4.42	
-0.05	 40.10	-0.03	 0.34	-13.08	 1.47	 10.16	 16.89	-2.98	 2.74	 0.33	 29.77	-3.85	 4.26	 2.20	-4.69	 17.93	 1.45	 0.06	-4.69	-30.93	-7.14	 0.31	 2.92	 1.25	 18.82	-3.62	-15.73	 0.00	-8.21	 55.39	 8.89	-70.58	 0.00	-86.33	 0.53	 0.00	 0.00	 0.00	 11.91	 0.00	 9.12	-53.23	 23.45	 61.84	-180.00	-84.35	 163.19	 0.00	 0.00	 0.00	 0.81	 47.95	 0.00	-4.77	-36.15	-3.25	
-0.06	 40.15	-0.04	 1.26	-12.41	 3.04	 10.67	 15.12	-2.81	 1.02	 1.84	 26.51	-3.85	 3.78	 2.17	-5.24	 17.81	 1.61	-0.01	-5.25	-32.54	-7.14	 0.41	 2.93	 0.98	 18.41	-3.54	-15.69	 0.00	-8.41	 56.42	 9.11	-70.79	 0.00	-86.56	 0.50	 0.00	 0.00	 0.00	 11.65	 0.00	 8.21	-52.65	 25.12	 60.35	-180.00	-85.28	 163.21	 0.00	 0.00	 0.00	 0.35	 47.70	 0.00	-5.03	-35.41	-2.85	
 0.02	 40.24	-0.11	 2.66	-11.94	 5.36	 10.98	 12.83	-2.47	-0.99	 4.64	 20.91	-3.84	 2.94	 2.11	-6.27	 18.09	 1.95	 0.01	-5.92	-34.92	-7.14	 0.53	 2.95	 0.48	 18.53	-3.85	-15.35	 0.00	-8.82	 57.05	 9.34	-69.88	 0.00	-85.86	 0.60	 0.00	 0.00	 0.00	 11.19	 0.00	 7.51	-51.63	 27.34	 57.37	-180.00	-87.11	 163.08	 0.00	 0.00	 0.00	-0.07	 47.35	 0.00	-5.19	-34.53	-2.30	
 0.16	 40.37	-0.27	 4.18	-11.27	 7.83	 11.06	 9.86	-1.92	-2.77	 8.55	 14.14	-3.84	 1.83	 2.04	-7.47	 18.10	 2.33	 0.01	-6.43	-37.51	-7.14	 0.66	 2.97	-0.12	 18.84	-4.34	-14.79	 0.00	-9.12	 57.28	 9.49	-67.41	 0.00	-83.84	 0.89	 0.00	 0.00	 0.00	 10.44	 0.00	 7.21	-50.14	 29.66	 52.84	 0.00	-89.80	-17.25	 0.00	 0.00	 0.00	-0.53	 47.07	 0.00	-5.11	-33.52	-1.50	
 0.31	 40.48	-0.41	 5.21	-10.62	 9.63	 11.62	 7.39	-1.52	-4.27	 12.16	 9.22	-3.84	 0.73	 1.97	-8.34	 17.91	 2.58	-0.06	-6.63	-39.38	-7.14	 0.73	 2.97	-0.55	 19.16	-4.64	-14.22	 0.00	-8.57	 57.35	 9.38	-63.71	 0.00	-80.31	 1.40	 0.00	 0.00	 0.00	 9.67	 0.00	 7.23	-48.40	 31.69	 47.26	 0.00	-85.20	-17.69	 0.00	 0.00	 0.00	-0.95	 46.95	 0.00	-4.79	-32.43	-0.60	
 0.47	 40.52	-0.46	 5.62	-10.27	 10.68	 12.83	 6.16	-1.40	-5.18	 14.41	 8.37	-3.84	 0.28	 1.94	-8.77	 17.93	 2.72	-0.17	-6.80	-40.47	-7.14	 0.84	 2.99	-0.79	 19.32	-4.68	-13.73	 0.00	-7.11	 57.31	 9.07	-59.09	 0.00	-75.37	 2.10	 0.00	 0.00	 0.00	 9.21	 0.00	 7.33	-46.98	 33.21	 41.27	 0.00	-78.97	-18.15	 0.00	 0.00	 0.00	-1.26	 46.95	 0.00	-4.34	-31.26	 0.22	
 0.70	 40.51	-0.43	 5.63	-10.17	 11.32	 14.13	 6.24	-1.57	-4.94	 14.71	 11.83	-3.84	 0.93	 1.98	-9.00	 18.25	 2.84	-0.23	-7.12	-41.18	-7.14	 1.00	 3.01	-0.82	 19.30	-4.47	-13.51	 0.00	-5.34	 57.33	 8.66	-53.81	 0.00	-69.19	 3.00	 0.00	 0.00	 0.00	 9.02	 0.00	 7.14	-46.15	 33.90	 35.17	 0.00	-70.99	-18.59	 0.00	 0.00	 0.00	-1.37	 46.99	 0.00	-3.89	-30.10	 0.76	
 1.02	 40.46	-0.34	 5.43	-10.23	 11.80	 15.28	 7.43	-2.02	-3.63	 13.00	 18.29	-3.84	 2.30	 2.07	-9.20	 18.80	 2.99	-0.22	-7.52	-41.76	-7.14	 1.10	 3.02	-0.77	 19.08	-4.03	-13.44	 0.00	-3.82	 57.53	 8.40	-48.27	 0.00	-62.15	 4.08	 0.00	 0.00	 0.00	 8.98	 0.00	 6.63	-45.78	 33.83	 28.77	 0.00	-61.20	-18.98	 0.00	 0.00	 0.00	-1.12	 47.02	 0.00	-3.59	-28.90	 0.83	
 1.42	 40.38	-0.22	 5.09	-10.37	 12.29	 16.35	 9.27	-2.71	-1.94	 9.78	 26.19	-3.84	 3.35	 2.14	-9.30	 19.44	 3.12	-0.30	-7.87	-42.30	-7.14	 1.28	 3.04	-0.77	 18.71	-3.48	-13.20	 0.00	-2.69	 57.84	 8.38	-42.39	 0.00	-54.56	 5.37	 0.00	 0.00	 0.00	 9.03	 0.00	 5.86	-45.71	 33.18	 21.51	 0.00	-50.57	-19.50	 0.00	 0.00	 0.00	-0.40	 47.01	 0.00	-3.50	-27.68	 0.34	
